<svg xmlns="http://www.w3.org/2000/svg" xmlns:svgjs="http://svgjs.com/svgjs" xmlns:xlink="http://www.w3.org/1999/xlink" width="288" height="288"><svg xmlns="http://www.w3.org/2000/svg" width="288" height="288" version="1.0" viewBox="0 0 598 598"><path d="M2775 5973 c-517 -44 -994 -204 -1410 -472 -451 -291 -809 -692-1053 -1181 -161 -322 -250 -615 -297 -983 -20 -156 -20 -530 0 -697 43 -362 149 -706 318 -1035 100 -193 198 -277 341 -292 86 -9 393 25 444 49 50 24 95 75 111 127 8 27 11 276 11 873 l0 834 26 52 c28 57 69 96 129 123 35 16 70 19 301 19 287 0 319 -5 386 -60 20 -17 48 -53 62 -82 l26 -52 0 -828 c0 -455 2 -828 5 -828 18 0 200 52 222 64 32 16 74 60 94 96 12 21 15 213 19 1085 l5 1060 27 46 c31 53 76 94 128 118 29 13 78 16 300 16 192 0 275 -4 302 -13 62 -22 114 -67 142 -123 l26 -53 0 -946 c0 -521 2 -949 6 -952 10 -10 238 93 267 120 67 63 61 -32 67 1252 l5 1165 22 41 c29 54 101 117 151 132 26 8 128 12 298 12 250 0 261 -1 309 -24 28 -12 65 -40 84 -61 70 -81 66 -10 69 -1037 1 -511 5 -928 8 -928 14 0 261 195 424 334 221 189 559 551 634 678 67 115 71 243 11 402 -324 865 -1018 1530 -1890 1809 -219 70 -396 107 -632 132 -127 13 -388 18 -498 8z" class="color000 svgShape" transform="matrix(.1 0 0 -.1 0 598)" fill="#000000"/></svg></svg>