<svg xmlns="http://www.w3.org/2000/svg" xmlns:svgjs="http://svgjs.com/svgjs" xmlns:xlink="http://www.w3.org/1999/xlink" width="288" height="288"><svg xmlns="http://www.w3.org/2000/svg" width="288" height="288" enable-background="new 0 0 450 450" viewBox="0 0 450 450"><path d="M287.000000,37.039093   C301.495026,37.038475 315.530853,36.380211 329.472137,37.245476   C340.609344,37.936707 351.891418,39.550484 362.611206,42.540260   C369.503418,44.462521 375.716614,49.290405 381.817993,53.429413   C386.782715,56.797340 391.839722,60.496349 395.587402,65.084579   C401.594360,72.438828 406.984436,80.398643 411.759796,88.611534   C413.940094,92.361305 413.623718,97.471626 415.146210,101.711143   C420.990936,117.985916 417.616882,134.764404 417.747498,151.251236   C418.238525,213.225342 417.886108,275.205780 418.017059,337.183502   C418.033569,344.997070 415.506958,352.031006 412.847046,359.061707   C410.429230,365.452454 407.466888,371.639771 404.659332,377.878418   C404.077942,379.170319 403.289276,380.456207 402.309509,381.467010   C396.990906,386.954071 391.926971,392.764191 386.099884,397.658875   C381.108002,401.852020 375.446991,405.420197 369.658844,408.458862   C356.606293,415.311310 342.495087,416.218079 327.907043,416.144928   C256.434204,415.786469 184.958069,416.093567 113.484879,415.769989   C106.518982,415.738434 99.536476,413.123322 92.611732,411.494659   C75.786209,407.537262 64.209534,395.826233 53.356644,383.627808   C48.889740,378.607117 46.071415,371.942474 43.240627,365.691650   C40.232197,359.048523 39.004295,351.786591 37.246635,344.722717   C35.823235,339.002197 35.181557,333.519379 35.173618,327.888245   C35.075191,258.079865 35.141006,188.271225 35.063919,118.462769   C35.055283,110.642838 37.486767,103.506607 40.265343,96.443382   C42.777534,90.057327 45.136345,83.507347 48.560394,77.608734   C53.282806,69.473457 58.389122,61.541370 67.288101,56.836990   C72.984039,53.825874 77.975632,49.510048 83.485802,46.107578   C86.039177,44.530895 89.020653,43.565529 91.907982,42.632195   C95.613602,41.434345 99.410240,40.510696 103.184418,39.533642   C116.310364,36.135628 129.716431,37.062737 143.051620,37.052910   C190.867722,37.017670 238.683868,37.039093 287.000000,37.039093  M112.550659,374.660614   C115.034454,375.318115 117.517822,376.548004 120.002106,376.549866   C190.808289,376.602478 261.614777,376.436401 332.420593,376.592987   C342.019379,376.614227 349.725555,372.251526 356.568146,366.995941   C362.637329,362.334442 367.649414,355.852234 371.864075,349.353882   C375.584625,343.617554 377.755371,336.889496 377.747040,329.641418   C377.673828,265.999115 377.778992,202.356552 377.639557,138.714478   C377.622406,130.903000 378.899811,123.027710 375.770813,115.243881   C373.239624,108.947189 372.356171,102.044182 366.481720,97.429977   C363.499908,95.087860 360.937683,92.177437 358.353271,89.369736   C350.074921,80.376083 338.880463,76.814529 327.661133,76.698021   C270.189178,76.101196 212.707138,76.259430 155.230209,76.513107   C141.590363,76.573311 127.705811,74.245811 114.336670,78.783401   C109.063782,80.573059 103.327011,82.183922 99.065147,85.500214   C91.736382,91.202957 84.212013,97.313232 80.556328,106.247803   C78.072090,112.319305 75.344261,118.902710 75.309967,125.271118   C74.937630,194.409424 75.067551,263.550476 75.131882,332.690735   C75.133453,334.385895 76.071823,336.059814 76.374039,337.778656   C77.474625,344.038116 80.883644,349.046600 84.259674,354.304535   C90.932007,364.696259 99.723434,371.690521 112.550659,374.660614  z" class="color020202 svgShape" fill="#000000"/><path d=" M250.730774,132.076965   C262.187073,135.637726 273.662018,138.744217 283.064514,145.459167   C293.583160,152.971268 304.493896,160.654099 309.823486,173.455811   C310.672028,175.493988 313.401703,176.800171 314.097870,178.841644   C316.840149,186.882950 320.625366,194.470108 323.055634,202.724670   C325.650543,211.538406 324.436829,220.069122 325.007507,228.704391   C325.325531,233.516602 324.903412,238.374161 325.121368,243.197433   C325.419586,249.797989 323.051544,255.627609 320.422821,261.432434   C317.661469,267.530151 315.379242,273.902679 312.041687,279.665161   C308.742371,285.361481 304.716919,290.729919 300.417511,295.732971   C293.659790,303.596588 285.638214,310.151367 276.484619,315.058960   C271.980377,317.473816 266.986237,318.973907 262.216614,320.895020   C245.037094,327.814545 227.038635,327.207214 209.208588,325.663330   C201.854340,325.026489 194.785507,321.271271 187.549057,319.057983   C173.585388,314.787231 162.269241,306.258423 152.775589,295.697906   C146.327057,288.524689 140.163010,280.411591 136.524780,271.620789   C133.799286,265.035400 131.319855,257.902893 129.727036,250.503830   C127.181000,238.676880 128.197983,227.113800 128.162567,215.499146   C128.143433,209.228943 130.403900,202.736633 132.657135,196.727448   C135.676682,188.674622 138.976013,180.551987 143.488998,173.287979   C147.240372,167.249878 153.019348,162.495407 157.719254,157.017136   C165.094772,148.420105 174.328598,141.890121 184.527267,137.923141   C192.185425,134.944351 200.088959,131.424789 208.978104,131.518921   C216.776291,131.601486 224.588852,129.413773 232.401184,129.372040   C238.365631,129.340164 244.339600,131.095779 250.730774,132.076965  M204.411255,282.075348   C211.133774,285.258209 218.073761,287.496582 225.648407,286.631714   C230.971924,286.023926 236.607483,286.177124 241.518173,284.385620   C248.976837,281.664520 256.402710,278.259033 262.973297,273.849121   C271.114105,268.385315 276.038239,259.657135 280.309418,251.093292   C283.430756,244.835007 286.206635,237.993530 285.286133,230.508194   C284.553741,224.552551 284.556427,218.410202 283.014404,212.678528   C281.579895,207.346649 279.310333,201.861298 276.010345,197.501831   C271.533813,191.588089 266.248016,185.992813 260.351776,181.524551   C253.458008,176.300385 245.556412,172.817245 236.825348,170.666275   C229.351151,168.824966 222.533493,168.389160 215.428711,171.010681   C213.154541,171.849823 210.805252,172.513245 208.596130,173.495056   C203.613281,175.709564 198.131531,177.321976 193.869019,180.529739   C184.660873,187.459381 176.889191,195.998428 172.495331,206.856277   C169.842361,213.412140 167.231522,220.014069 167.450546,227.524963   C167.646240,234.235565 170.238068,240.124435 171.600037,246.389343   C173.466934,254.976807 178.630432,260.581879 184.387817,266.220825   C190.347168,272.057556 195.664963,278.664368 204.411255,282.075348  z" class="color040404 svgShape" fill="#000000"/><path d=" M317.557068,156.043320   C313.411133,152.684357 309.096008,149.850586 306.123352,145.984558   C300.737000,138.979507 301.971222,130.306717 303.604004,122.661209   C304.603424,117.981552 308.830109,113.156837 312.900391,110.144142   C320.918213,104.209618 330.733002,106.213737 339.696289,107.374825   C345.505371,108.127312 349.195404,113.326050 352.069336,118.687103   C355.008698,124.170250 354.936768,129.897873 355.156311,135.796860   C355.523956,145.674866 344.861206,156.471909 335.448608,156.385147   C329.629700,156.331512 323.811554,156.199829 317.557068,156.043320  z" class="color050505 svgShape" fill="#000000"/></svg></svg>