<svg xmlns="http://www.w3.org/2000/svg" xmlns:svgjs="http://svgjs.com/svgjs" xmlns:xlink="http://www.w3.org/1999/xlink" width="288" height="288"><svg xmlns="http://www.w3.org/2000/svg" width="288" height="288" enable-background="new 0 0 360 360" viewBox="0 0 360 360"><path d="M96.998405,330.004944   C86.477379,330.513397 77.121674,326.625336 68.082077,321.976990   C44.071480,309.630280 28.341635,290.281555 21.482967,264.251709   C19.451086,256.540344 19.779390,248.201248 19.092455,240.144150   C18.800615,236.721130 20.597284,235.533310 23.900906,235.545303   C45.208820,235.622665 66.517113,235.595535 87.825287,235.601990   C92.776146,235.603485 97.726997,235.602203 103.158920,235.602203   C102.413048,244.359924 105.473526,251.188263 110.107246,257.647034   C115.397964,265.021576 122.982353,268.314728 131.358154,268.924316   C141.965637,269.696320 152.671875,269.096191 163.335449,269.121399   C167.169571,269.130463 169.877960,267.627716 169.962875,263.527954   C170.126984,255.605804 170.010803,247.677826 170.010803,239.364807   C157.494171,239.364807 146.188126,239.377609 134.882126,239.359802   C128.482635,239.349731 127.150459,237.519516 130.330383,231.970718   C135.681915,222.632599 142.135956,213.878723 146.929230,204.281281   C151.978439,194.171417 156.548584,183.616791 159.554855,172.765259   C161.520325,165.670700 160.738785,157.687485 160.471619,150.127594   C159.838043,132.198410 154.406204,115.269302 147.976791,98.783134   C142.538101,84.837440 135.772125,71.411003 129.673218,57.719280   C128.853943,55.880051 128.501144,53.833035 127.619400,50.809032   C142.527084,51.531456 155.094482,57.846272 169.017380,60.190876   C169.637756,52.967728 170.305817,45.924736 170.827637,38.870930   C171.214737,33.638645 174.120514,30.626696 179.040573,29.746391   C190.541504,27.688627 196.579376,28.665232 200.798676,37.265930   C201.488495,38.672058 201.721848,40.421139 201.741272,42.016884   C201.834503,49.680222 201.641266,57.349991 201.894623,65.006058   C201.948029,66.620010 203.042099,68.754509 204.345200,69.687431   C219.643600,80.639847 232.876007,93.891754 245.243591,107.856926   C255.719254,119.685791 265.222382,132.684753 269.414337,148.241394   C274.421295,166.822449 271.949677,184.780182 260.578918,200.681152   C254.213409,209.582718 246.896500,217.811539 239.872818,226.230499   C237.610916,228.941757 234.508667,231.006363 232.503937,233.866592   C228.112518,240.131989 221.833832,239.542145 215.515152,239.385742   C211.691727,239.291122 207.864075,239.368332 203.448257,239.368332   C199.976562,249.004089 202.704956,258.907257 201.552399,269.733154   C213.539871,269.067841 224.983047,269.083160 236.203430,267.509766   C241.118759,266.820465 245.874146,263.306366 250.155380,260.297058   C253.768768,257.757202 256.956635,254.377228 259.688354,250.867477   C265.089630,243.927872 272.562134,241.177063 280.606232,238.958817   C297.570618,234.280746 314.446716,229.283295 331.374939,224.472733   C338.848755,222.348846 346.361206,220.360962 354.938599,218.015335   C354.938599,226.552429 355.113190,233.648315 354.771545,240.719269   C354.712646,241.937683 352.645050,243.413300 351.191315,244.152878   C341.368286,249.150238 331.388275,254.081863 324.409058,262.893158   C318.861176,269.897400 313.837158,277.386017 309.227020,285.048523   C300.729309,299.172485 291.497833,312.683807 278.785980,323.352112   C274.311737,327.107086 269.223389,330.387970 262.152954,329.816772   C256.297180,329.624573 251.145874,329.812286 245.526245,330.000000   C225.365784,329.998169 205.673630,329.996338 185.688690,329.699768   C183.585388,329.273254 181.775040,329.030029 179.964310,329.027008   C161.646912,328.996552 143.329468,329.005402 124.593369,329.002258   C122.779175,329.001984 121.383652,329.002686 119.520752,329.005859   C116.567253,329.007965 114.075493,328.899994 111.596191,329.029846   C106.726593,329.284943 101.863937,329.672333 96.998405,330.004944  z" class="color010101 svgShape" fill="#000000"/><path d=" M121.426468,100.504074   C124.997604,112.604050 129.321640,124.155251 131.692078,136.094330   C133.568253,145.544098 133.342087,155.464706 133.511795,165.185638   C133.702972,176.137680 127.026268,184.789703 123.121002,194.409882   C118.884293,204.846527 111.444618,206.385910 101.400085,206.002670   C82.779556,205.292206 64.114456,205.766632 45.468048,205.708694   C38.420120,205.686783 36.826771,202.966919 40.671822,196.832199   C49.348541,182.988602 58.291546,169.312225 67.070969,155.532608   C76.973206,139.990677 86.826630,124.417603 96.676826,108.842598   C100.438416,102.894829 104.036774,96.841827 107.885445,90.951736   C111.316154,85.701294 114.979263,85.903717 117.814812,91.484512   C119.218491,94.247162 120.176842,97.236069 121.426468,100.504074  z" class="color030303 svgShape" fill="#000000"/><path d=" M119.988121,329.003357   C121.383652,329.002686 122.779175,329.001984 124.886398,329.297791   C127.408409,329.726654 129.218536,329.971222 131.029053,329.974152   C149.346497,330.003601 167.664001,329.993500 185.981491,329.994507   C205.673630,329.996338 225.365784,329.998169 245.433685,330.245728   C245.539032,330.941650 245.268631,331.391815 244.998230,331.842041   C210.445633,331.893463 175.893036,331.948029 141.340439,331.994080   C132.867538,332.005371 124.394600,331.988831 115.345016,331.628845   C116.508278,330.516205 118.248199,329.759766 119.988121,329.003357  z" class="color010101 svgShape" fill="#000000"/><path d="M119.520752 329.005859C118.248199 329.759766 116.508278 330.516205 114.880859 331.556824 109.211975 331.355438 103.430573 330.869843 97.323792 330.19458 101.863937 329.672333 106.726593 329.284943 111.596191 329.029846 114.075493 328.899994 116.567253 329.007965 119.520752 329.005859zM245.45874 331.921753C245.268631 331.391815 245.539032 330.94165 245.902008 330.245728 251.145874 329.812286 256.29718 329.624573 261.733704 329.744385 259.783417 330.699127 257.582306 331.674866 255.303986 331.913513 252.206635 332.237915 249.050278 331.998901 245.45874 331.921753zM185.68869 329.699768C167.664001 329.9935 149.346497 330.003601 131.029053 329.974152 129.218536 329.971222 127.408409 329.726654 125.305061 329.298737 143.329468 329.005402 161.646912 328.996552 179.96431 329.027008 181.77504 329.030029 183.585388 329.273254 185.68869 329.699768z" class="color111112 svgShape" fill="#000000"/></svg></svg>